<mxfile host="Electron" agent="Mozilla/5.0 (Macintosh; Intel Mac OS X 10_15_7) AppleWebKit/537.36 (KHTML, like Gecko) draw.io/26.0.9 Chrome/128.0.6613.186 Electron/32.2.5 Safari/537.36" version="26.0.9" pages="2">
  <diagram name="Module Dependency Graph" id="EBqpYc9slvj5nSn-h0pL">
    <mxGraphModel dx="3034" dy="1590" grid="0" gridSize="10" guides="0" tooltips="1" connect="1" arrows="1" fold="1" page="0" pageScale="1" pageWidth="1200" pageHeight="1600" math="0" shadow="0">
      <root>
        <mxCell id="0" />
        <mxCell id="1" parent="0" />
        <mxCell id="6kAnz0pV7aHYu8OxiVOC-2" value="&lt;b&gt;&lt;font style=&quot;font-size: 16px;&quot;&gt;&amp;lt;&amp;lt; Interface &amp;gt;&amp;gt;&lt;/font&gt;&lt;/b&gt;" style="rounded=1;whiteSpace=wrap;html=1;fillColor=#d5e8d4;strokeColor=#82b366;verticalAlign=middle;fontSize=14;dashed=1;" parent="1" vertex="1">
          <mxGeometry x="-1193" y="-110" width="227" height="73" as="geometry" />
        </mxCell>
        <mxCell id="6kAnz0pV7aHYu8OxiVOC-3" value="&lt;b style=&quot;color: rgb(51, 51, 51); font-size: 16px;&quot;&gt;Label&lt;/b&gt;&lt;br&gt;&lt;div&gt;-&amp;nbsp;&lt;/div&gt;" style="rounded=1;whiteSpace=wrap;html=1;fillColor=#dae8fc;strokeColor=#6c8ebf;verticalAlign=middle;fontSize=14;" parent="1" vertex="1">
          <mxGeometry x="-1203" y="-225" width="254" height="65" as="geometry" />
        </mxCell>
        <mxCell id="6kAnz0pV7aHYu8OxiVOC-4" value="&lt;b style=&quot;color: rgb(51, 51, 51); font-size: 16px;&quot;&gt;Label&lt;/b&gt;&lt;br&gt;-&amp;nbsp;" style="rounded=1;whiteSpace=wrap;html=1;fillColor=#fff2cc;strokeColor=#d6b656;verticalAlign=middle;fontSize=14;" parent="1" vertex="1">
          <mxGeometry x="-1201" y="-338" width="254" height="65" as="geometry" />
        </mxCell>
        <mxCell id="6kAnz0pV7aHYu8OxiVOC-5" value="&lt;b style=&quot;color: rgb(51, 51, 51); font-size: 16px;&quot;&gt;Label&lt;/b&gt;&lt;br&gt;-&amp;nbsp;" style="rounded=1;whiteSpace=wrap;html=1;fillColor=#f8cecc;strokeColor=#b85450;verticalAlign=middle;fontSize=14;" parent="1" vertex="1">
          <mxGeometry x="-1201" y="-445" width="254" height="65" as="geometry" />
        </mxCell>
        <mxCell id="6kAnz0pV7aHYu8OxiVOC-6" value="&lt;span style=&quot;font-size: 16px;&quot;&gt;&lt;b&gt;Label&lt;/b&gt;&lt;/span&gt;&lt;br&gt;-&amp;nbsp;" style="rounded=1;whiteSpace=wrap;html=1;fillColor=#f5f5f5;strokeColor=#666666;verticalAlign=middle;fontSize=14;fontColor=#333333;" parent="1" vertex="1">
          <mxGeometry x="-1193" y="-559" width="254" height="65" as="geometry" />
        </mxCell>
        <mxCell id="_ydyRNR4LVn4z7nucYfx-21" value="" style="endArrow=classic;html=1;rounded=1;strokeWidth=2;strokeColor=#B85450;verticalAlign=middle;jumpStyle=arc;edgeStyle=orthogonalEdgeStyle;" parent="1" edge="1">
          <mxGeometry width="50" height="50" relative="1" as="geometry">
            <mxPoint x="-898" y="-437" as="sourcePoint" />
            <mxPoint x="-808" y="-437" as="targetPoint" />
          </mxGeometry>
        </mxCell>
        <mxCell id="_ydyRNR4LVn4z7nucYfx-22" value="" style="endArrow=block;html=1;rounded=1;strokeWidth=2;strokeColor=#B85450;endFill=0;verticalAlign=middle;jumpStyle=arc;edgeStyle=orthogonalEdgeStyle;" parent="1" edge="1">
          <mxGeometry width="50" height="50" relative="1" as="geometry">
            <mxPoint x="-899" y="-417" as="sourcePoint" />
            <mxPoint x="-809" y="-417" as="targetPoint" />
          </mxGeometry>
        </mxCell>
        <mxCell id="_ydyRNR4LVn4z7nucYfx-23" value="" style="endArrow=block;html=1;rounded=1;strokeWidth=2;strokeColor=#B85450;dashed=1;endFill=0;verticalAlign=middle;jumpStyle=arc;edgeStyle=orthogonalEdgeStyle;" parent="1" edge="1">
          <mxGeometry width="50" height="50" relative="1" as="geometry">
            <mxPoint x="-899" y="-395" as="sourcePoint" />
            <mxPoint x="-809" y="-395" as="targetPoint" />
          </mxGeometry>
        </mxCell>
        <mxCell id="_ydyRNR4LVn4z7nucYfx-24" value="" style="endArrow=block;html=1;rounded=1;strokeWidth=2;strokeColor=#B85450;dashed=1;endFill=1;verticalAlign=middle;jumpStyle=arc;edgeStyle=orthogonalEdgeStyle;" parent="1" edge="1">
          <mxGeometry width="50" height="50" relative="1" as="geometry">
            <mxPoint x="-900" y="-375" as="sourcePoint" />
            <mxPoint x="-810" y="-375" as="targetPoint" />
          </mxGeometry>
        </mxCell>
        <mxCell id="_ydyRNR4LVn4z7nucYfx-25" value="" style="endArrow=classic;html=1;rounded=1;strokeWidth=2;strokeColor=#D6B656;verticalAlign=middle;jumpStyle=arc;edgeStyle=orthogonalEdgeStyle;" parent="1" edge="1">
          <mxGeometry width="50" height="50" relative="1" as="geometry">
            <mxPoint x="-897" y="-329" as="sourcePoint" />
            <mxPoint x="-807" y="-329" as="targetPoint" />
          </mxGeometry>
        </mxCell>
        <mxCell id="_ydyRNR4LVn4z7nucYfx-26" value="" style="endArrow=block;html=1;rounded=1;strokeWidth=2;strokeColor=#D6B656;endFill=0;verticalAlign=middle;jumpStyle=arc;edgeStyle=orthogonalEdgeStyle;" parent="1" edge="1">
          <mxGeometry width="50" height="50" relative="1" as="geometry">
            <mxPoint x="-898" y="-309" as="sourcePoint" />
            <mxPoint x="-808" y="-309" as="targetPoint" />
          </mxGeometry>
        </mxCell>
        <mxCell id="_ydyRNR4LVn4z7nucYfx-27" value="" style="endArrow=block;html=1;rounded=1;strokeWidth=2;strokeColor=#D6B656;dashed=1;endFill=0;verticalAlign=middle;jumpStyle=arc;edgeStyle=orthogonalEdgeStyle;" parent="1" edge="1">
          <mxGeometry width="50" height="50" relative="1" as="geometry">
            <mxPoint x="-898" y="-287" as="sourcePoint" />
            <mxPoint x="-808" y="-287" as="targetPoint" />
          </mxGeometry>
        </mxCell>
        <mxCell id="_ydyRNR4LVn4z7nucYfx-28" value="" style="endArrow=block;html=1;rounded=1;strokeWidth=2;strokeColor=#D6B656;dashed=1;endFill=1;verticalAlign=middle;jumpStyle=arc;edgeStyle=orthogonalEdgeStyle;" parent="1" edge="1">
          <mxGeometry width="50" height="50" relative="1" as="geometry">
            <mxPoint x="-899" y="-267" as="sourcePoint" />
            <mxPoint x="-809" y="-267" as="targetPoint" />
          </mxGeometry>
        </mxCell>
        <mxCell id="_ydyRNR4LVn4z7nucYfx-29" value="" style="endArrow=classic;html=1;rounded=1;strokeWidth=2;strokeColor=#6C8EBF;verticalAlign=middle;jumpStyle=arc;edgeStyle=orthogonalEdgeStyle;" parent="1" edge="1">
          <mxGeometry width="50" height="50" relative="1" as="geometry">
            <mxPoint x="-900" y="-222" as="sourcePoint" />
            <mxPoint x="-810" y="-222" as="targetPoint" />
          </mxGeometry>
        </mxCell>
        <mxCell id="_ydyRNR4LVn4z7nucYfx-30" value="" style="endArrow=block;html=1;rounded=1;strokeWidth=2;strokeColor=#6C8EBF;endFill=0;verticalAlign=middle;jumpStyle=arc;edgeStyle=orthogonalEdgeStyle;" parent="1" edge="1">
          <mxGeometry width="50" height="50" relative="1" as="geometry">
            <mxPoint x="-901" y="-202" as="sourcePoint" />
            <mxPoint x="-811" y="-202" as="targetPoint" />
          </mxGeometry>
        </mxCell>
        <mxCell id="_ydyRNR4LVn4z7nucYfx-31" value="" style="endArrow=block;html=1;rounded=1;strokeWidth=2;strokeColor=#6C8EBF;dashed=1;endFill=0;verticalAlign=middle;jumpStyle=arc;edgeStyle=orthogonalEdgeStyle;" parent="1" edge="1">
          <mxGeometry width="50" height="50" relative="1" as="geometry">
            <mxPoint x="-901" y="-180" as="sourcePoint" />
            <mxPoint x="-811" y="-180" as="targetPoint" />
          </mxGeometry>
        </mxCell>
        <mxCell id="_ydyRNR4LVn4z7nucYfx-32" value="" style="endArrow=block;html=1;rounded=1;strokeWidth=2;strokeColor=#6C8EBF;dashed=1;endFill=1;verticalAlign=middle;jumpStyle=arc;edgeStyle=orthogonalEdgeStyle;" parent="1" edge="1">
          <mxGeometry width="50" height="50" relative="1" as="geometry">
            <mxPoint x="-902" y="-160" as="sourcePoint" />
            <mxPoint x="-812" y="-160" as="targetPoint" />
          </mxGeometry>
        </mxCell>
        <mxCell id="_ydyRNR4LVn4z7nucYfx-33" value="" style="endArrow=classic;html=1;rounded=1;strokeWidth=2;strokeColor=#82B366;verticalAlign=middle;jumpStyle=arc;edgeStyle=orthogonalEdgeStyle;" parent="1" edge="1">
          <mxGeometry width="50" height="50" relative="1" as="geometry">
            <mxPoint x="-900" y="-101" as="sourcePoint" />
            <mxPoint x="-810" y="-101" as="targetPoint" />
          </mxGeometry>
        </mxCell>
        <mxCell id="_ydyRNR4LVn4z7nucYfx-34" value="" style="endArrow=block;html=1;rounded=1;strokeWidth=2;strokeColor=#82B366;endFill=0;verticalAlign=middle;jumpStyle=arc;edgeStyle=orthogonalEdgeStyle;" parent="1" edge="1">
          <mxGeometry width="50" height="50" relative="1" as="geometry">
            <mxPoint x="-901" y="-81" as="sourcePoint" />
            <mxPoint x="-811" y="-81" as="targetPoint" />
          </mxGeometry>
        </mxCell>
        <mxCell id="_ydyRNR4LVn4z7nucYfx-35" value="" style="endArrow=block;html=1;rounded=1;strokeWidth=2;strokeColor=#82B366;dashed=1;endFill=0;verticalAlign=middle;jumpStyle=arc;edgeStyle=orthogonalEdgeStyle;" parent="1" edge="1">
          <mxGeometry width="50" height="50" relative="1" as="geometry">
            <mxPoint x="-901" y="-59" as="sourcePoint" />
            <mxPoint x="-811" y="-59" as="targetPoint" />
          </mxGeometry>
        </mxCell>
        <mxCell id="_ydyRNR4LVn4z7nucYfx-36" value="" style="endArrow=block;html=1;rounded=1;strokeWidth=2;strokeColor=#82B366;dashed=1;endFill=1;verticalAlign=middle;jumpStyle=arc;edgeStyle=orthogonalEdgeStyle;" parent="1" edge="1">
          <mxGeometry width="50" height="50" relative="1" as="geometry">
            <mxPoint x="-902" y="-39" as="sourcePoint" />
            <mxPoint x="-812" y="-39" as="targetPoint" />
          </mxGeometry>
        </mxCell>
        <mxCell id="_ydyRNR4LVn4z7nucYfx-37" value="" style="endArrow=classic;html=1;rounded=1;strokeWidth=2;strokeColor=#666666;verticalAlign=middle;jumpStyle=arc;edgeStyle=orthogonalEdgeStyle;" parent="1" edge="1">
          <mxGeometry width="50" height="50" relative="1" as="geometry">
            <mxPoint x="-898" y="-559" as="sourcePoint" />
            <mxPoint x="-808" y="-559" as="targetPoint" />
          </mxGeometry>
        </mxCell>
        <mxCell id="_ydyRNR4LVn4z7nucYfx-38" value="" style="endArrow=block;html=1;rounded=1;strokeWidth=2;strokeColor=#666666;endFill=0;verticalAlign=middle;jumpStyle=arc;edgeStyle=orthogonalEdgeStyle;" parent="1" edge="1">
          <mxGeometry width="50" height="50" relative="1" as="geometry">
            <mxPoint x="-899" y="-539" as="sourcePoint" />
            <mxPoint x="-809" y="-539" as="targetPoint" />
          </mxGeometry>
        </mxCell>
        <mxCell id="_ydyRNR4LVn4z7nucYfx-39" value="" style="endArrow=block;html=1;rounded=1;strokeWidth=2;strokeColor=#666666;dashed=1;endFill=0;verticalAlign=middle;jumpStyle=arc;edgeStyle=orthogonalEdgeStyle;" parent="1" edge="1">
          <mxGeometry width="50" height="50" relative="1" as="geometry">
            <mxPoint x="-899" y="-517" as="sourcePoint" />
            <mxPoint x="-809" y="-517" as="targetPoint" />
          </mxGeometry>
        </mxCell>
        <mxCell id="_ydyRNR4LVn4z7nucYfx-40" value="" style="endArrow=block;html=1;rounded=1;strokeWidth=2;strokeColor=#666666;dashed=1;endFill=1;verticalAlign=middle;jumpStyle=arc;edgeStyle=orthogonalEdgeStyle;" parent="1" edge="1">
          <mxGeometry width="50" height="50" relative="1" as="geometry">
            <mxPoint x="-900" y="-497" as="sourcePoint" />
            <mxPoint x="-810" y="-497" as="targetPoint" />
          </mxGeometry>
        </mxCell>
        <mxCell id="_ydyRNR4LVn4z7nucYfx-41" value="BezetQit&lt;span style=&quot;background-color: transparent; color: light-dark(rgb(0, 0, 0), rgb(255, 255, 255));&quot;&gt;&amp;nbsp;&lt;/span&gt;" style="rounded=1;whiteSpace=wrap;html=1;fillColor=#eeeeee;strokeColor=#36393d;verticalAlign=middle;fontSize=14;" parent="1" vertex="1">
          <mxGeometry x="-193" y="-139" width="254" height="65" as="geometry" />
        </mxCell>
        <mxCell id="_ydyRNR4LVn4z7nucYfx-42" value="RecipeBuddy Data" style="rounded=1;whiteSpace=wrap;html=1;fillColor=#eeeeee;strokeColor=#36393d;verticalAlign=middle;fontSize=14;" parent="1" vertex="1">
          <mxGeometry x="-21" y="-333" width="254" height="65" as="geometry" />
        </mxCell>
        <mxCell id="_ydyRNR4LVn4z7nucYfx-43" value="RecipeBuddy iOS App" style="rounded=1;whiteSpace=wrap;html=1;fillColor=#eeeeee;strokeColor=#36393d;verticalAlign=middle;fontSize=14;" parent="1" vertex="1">
          <mxGeometry x="-266" y="-556" width="254" height="65" as="geometry" />
        </mxCell>
        <mxCell id="_ydyRNR4LVn4z7nucYfx-46" value="" style="endArrow=classic;html=1;rounded=1;strokeWidth=2;strokeColor=#666666;verticalAlign=middle;jumpStyle=arc;edgeStyle=orthogonalEdgeStyle;" parent="1" source="_ydyRNR4LVn4z7nucYfx-42" target="_ydyRNR4LVn4z7nucYfx-41" edge="1">
          <mxGeometry width="50" height="50" relative="1" as="geometry">
            <mxPoint x="56" y="-208" as="sourcePoint" />
            <mxPoint x="146" y="-208" as="targetPoint" />
          </mxGeometry>
        </mxCell>
        <mxCell id="_ydyRNR4LVn4z7nucYfx-49" value="" style="endArrow=classic;html=1;rounded=1;strokeWidth=2;strokeColor=#666666;verticalAlign=middle;jumpStyle=arc;edgeStyle=orthogonalEdgeStyle;" parent="1" source="_ydyRNR4LVn4z7nucYfx-43" target="_ydyRNR4LVn4z7nucYfx-42" edge="1">
          <mxGeometry width="50" height="50" relative="1" as="geometry">
            <mxPoint x="331" y="-495" as="sourcePoint" />
            <mxPoint x="125" y="-381" as="targetPoint" />
          </mxGeometry>
        </mxCell>
        <mxCell id="b820WzcJ7t-f0ZomHZWu-1" value="Module Dependency Graph" style="text;html=1;align=center;verticalAlign=middle;resizable=0;points=[];autosize=1;strokeColor=none;fillColor=none;fontSize=16;fontStyle=1" vertex="1" parent="1">
          <mxGeometry x="-250" y="-652" width="214" height="31" as="geometry" />
        </mxCell>
      </root>
    </mxGraphModel>
  </diagram>
  <diagram id="RIWQu7A5xCeufe72fD7A" name="ReBudData">
    <mxGraphModel dx="3287" dy="2129" grid="0" gridSize="10" guides="1" tooltips="1" connect="1" arrows="1" fold="1" page="1" pageScale="1" pageWidth="1600" pageHeight="1200" math="0" shadow="0">
      <root>
        <mxCell id="0" />
        <mxCell id="1" parent="0" />
        <mxCell id="QRVgcffrKU4HGikY60Kn-26" value="&lt;b&gt;&lt;font style=&quot;font-size: 16px;&quot;&gt;&amp;lt;&amp;lt; Interface &amp;gt;&amp;gt;&lt;/font&gt;&lt;/b&gt;" style="rounded=1;whiteSpace=wrap;html=1;fillColor=#d5e8d4;strokeColor=#82b366;verticalAlign=middle;fontSize=14;dashed=1;" parent="1" vertex="1">
          <mxGeometry x="-774" y="326" width="227" height="73" as="geometry" />
        </mxCell>
        <mxCell id="QRVgcffrKU4HGikY60Kn-27" value="&lt;b style=&quot;color: rgb(51, 51, 51); font-size: 16px;&quot;&gt;Label&lt;/b&gt;&lt;br&gt;&lt;div&gt;-&amp;nbsp;&lt;/div&gt;" style="rounded=1;whiteSpace=wrap;html=1;fillColor=#dae8fc;strokeColor=#6c8ebf;verticalAlign=middle;fontSize=14;" parent="1" vertex="1">
          <mxGeometry x="-784" y="211" width="254" height="65" as="geometry" />
        </mxCell>
        <mxCell id="QRVgcffrKU4HGikY60Kn-28" value="&lt;b style=&quot;color: rgb(51, 51, 51); font-size: 16px;&quot;&gt;Label&lt;/b&gt;&lt;br&gt;-&amp;nbsp;" style="rounded=1;whiteSpace=wrap;html=1;fillColor=#fff2cc;strokeColor=#d6b656;verticalAlign=middle;fontSize=14;" parent="1" vertex="1">
          <mxGeometry x="-782" y="98" width="254" height="65" as="geometry" />
        </mxCell>
        <mxCell id="QRVgcffrKU4HGikY60Kn-29" value="&lt;b style=&quot;color: rgb(51, 51, 51); font-size: 16px;&quot;&gt;Label&lt;/b&gt;&lt;br&gt;-&amp;nbsp;" style="rounded=1;whiteSpace=wrap;html=1;fillColor=#f8cecc;strokeColor=#b85450;verticalAlign=middle;fontSize=14;" parent="1" vertex="1">
          <mxGeometry x="-782" y="-9" width="254" height="65" as="geometry" />
        </mxCell>
        <mxCell id="QRVgcffrKU4HGikY60Kn-30" value="&lt;span style=&quot;font-size: 16px;&quot;&gt;&lt;b&gt;Label&lt;/b&gt;&lt;/span&gt;&lt;br&gt;-&amp;nbsp;" style="rounded=1;whiteSpace=wrap;html=1;fillColor=#f5f5f5;strokeColor=#666666;verticalAlign=middle;fontSize=14;fontColor=#333333;" parent="1" vertex="1">
          <mxGeometry x="-774" y="-123" width="254" height="65" as="geometry" />
        </mxCell>
        <mxCell id="QRVgcffrKU4HGikY60Kn-31" value="" style="endArrow=classic;html=1;rounded=1;strokeWidth=2;strokeColor=#B85450;verticalAlign=middle;jumpStyle=arc;edgeStyle=orthogonalEdgeStyle;" parent="1" edge="1">
          <mxGeometry width="50" height="50" relative="1" as="geometry">
            <mxPoint x="-479" y="-1" as="sourcePoint" />
            <mxPoint x="-389" y="-1" as="targetPoint" />
          </mxGeometry>
        </mxCell>
        <mxCell id="QRVgcffrKU4HGikY60Kn-32" value="" style="endArrow=block;html=1;rounded=1;strokeWidth=2;strokeColor=#B85450;endFill=0;verticalAlign=middle;jumpStyle=arc;edgeStyle=orthogonalEdgeStyle;" parent="1" edge="1">
          <mxGeometry width="50" height="50" relative="1" as="geometry">
            <mxPoint x="-480" y="19" as="sourcePoint" />
            <mxPoint x="-390" y="19" as="targetPoint" />
          </mxGeometry>
        </mxCell>
        <mxCell id="QRVgcffrKU4HGikY60Kn-33" value="" style="endArrow=block;html=1;rounded=1;strokeWidth=2;strokeColor=#B85450;dashed=1;endFill=0;verticalAlign=middle;jumpStyle=arc;edgeStyle=orthogonalEdgeStyle;" parent="1" edge="1">
          <mxGeometry width="50" height="50" relative="1" as="geometry">
            <mxPoint x="-480" y="41" as="sourcePoint" />
            <mxPoint x="-390" y="41" as="targetPoint" />
          </mxGeometry>
        </mxCell>
        <mxCell id="QRVgcffrKU4HGikY60Kn-34" value="" style="endArrow=block;html=1;rounded=1;strokeWidth=2;strokeColor=#B85450;dashed=1;endFill=1;verticalAlign=middle;jumpStyle=arc;edgeStyle=orthogonalEdgeStyle;" parent="1" edge="1">
          <mxGeometry width="50" height="50" relative="1" as="geometry">
            <mxPoint x="-481" y="61" as="sourcePoint" />
            <mxPoint x="-391" y="61" as="targetPoint" />
          </mxGeometry>
        </mxCell>
        <mxCell id="QRVgcffrKU4HGikY60Kn-35" value="" style="endArrow=classic;html=1;rounded=1;strokeWidth=2;strokeColor=#D6B656;verticalAlign=middle;jumpStyle=arc;edgeStyle=orthogonalEdgeStyle;" parent="1" edge="1">
          <mxGeometry width="50" height="50" relative="1" as="geometry">
            <mxPoint x="-478" y="107" as="sourcePoint" />
            <mxPoint x="-388" y="107" as="targetPoint" />
          </mxGeometry>
        </mxCell>
        <mxCell id="QRVgcffrKU4HGikY60Kn-36" value="" style="endArrow=block;html=1;rounded=1;strokeWidth=2;strokeColor=#D6B656;endFill=0;verticalAlign=middle;jumpStyle=arc;edgeStyle=orthogonalEdgeStyle;" parent="1" edge="1">
          <mxGeometry width="50" height="50" relative="1" as="geometry">
            <mxPoint x="-479" y="127" as="sourcePoint" />
            <mxPoint x="-389" y="127" as="targetPoint" />
          </mxGeometry>
        </mxCell>
        <mxCell id="QRVgcffrKU4HGikY60Kn-37" value="" style="endArrow=block;html=1;rounded=1;strokeWidth=2;strokeColor=#D6B656;dashed=1;endFill=0;verticalAlign=middle;jumpStyle=arc;edgeStyle=orthogonalEdgeStyle;" parent="1" edge="1">
          <mxGeometry width="50" height="50" relative="1" as="geometry">
            <mxPoint x="-479" y="149" as="sourcePoint" />
            <mxPoint x="-389" y="149" as="targetPoint" />
          </mxGeometry>
        </mxCell>
        <mxCell id="QRVgcffrKU4HGikY60Kn-38" value="" style="endArrow=block;html=1;rounded=1;strokeWidth=2;strokeColor=#D6B656;dashed=1;endFill=1;verticalAlign=middle;jumpStyle=arc;edgeStyle=orthogonalEdgeStyle;" parent="1" edge="1">
          <mxGeometry width="50" height="50" relative="1" as="geometry">
            <mxPoint x="-480" y="169" as="sourcePoint" />
            <mxPoint x="-390" y="169" as="targetPoint" />
          </mxGeometry>
        </mxCell>
        <mxCell id="QRVgcffrKU4HGikY60Kn-39" value="" style="endArrow=classic;html=1;rounded=1;strokeWidth=2;strokeColor=#6C8EBF;verticalAlign=middle;jumpStyle=arc;edgeStyle=orthogonalEdgeStyle;" parent="1" edge="1">
          <mxGeometry width="50" height="50" relative="1" as="geometry">
            <mxPoint x="-481" y="214" as="sourcePoint" />
            <mxPoint x="-391" y="214" as="targetPoint" />
          </mxGeometry>
        </mxCell>
        <mxCell id="QRVgcffrKU4HGikY60Kn-40" value="" style="endArrow=block;html=1;rounded=1;strokeWidth=2;strokeColor=#6C8EBF;endFill=0;verticalAlign=middle;jumpStyle=arc;edgeStyle=orthogonalEdgeStyle;" parent="1" edge="1">
          <mxGeometry width="50" height="50" relative="1" as="geometry">
            <mxPoint x="-482" y="234" as="sourcePoint" />
            <mxPoint x="-392" y="234" as="targetPoint" />
          </mxGeometry>
        </mxCell>
        <mxCell id="QRVgcffrKU4HGikY60Kn-41" value="" style="endArrow=block;html=1;rounded=1;strokeWidth=2;strokeColor=#6C8EBF;dashed=1;endFill=0;verticalAlign=middle;jumpStyle=arc;edgeStyle=orthogonalEdgeStyle;" parent="1" edge="1">
          <mxGeometry width="50" height="50" relative="1" as="geometry">
            <mxPoint x="-482" y="256" as="sourcePoint" />
            <mxPoint x="-392" y="256" as="targetPoint" />
          </mxGeometry>
        </mxCell>
        <mxCell id="QRVgcffrKU4HGikY60Kn-42" value="" style="endArrow=block;html=1;rounded=1;strokeWidth=2;strokeColor=#6C8EBF;dashed=1;endFill=1;verticalAlign=middle;jumpStyle=arc;edgeStyle=orthogonalEdgeStyle;" parent="1" edge="1">
          <mxGeometry width="50" height="50" relative="1" as="geometry">
            <mxPoint x="-483" y="276" as="sourcePoint" />
            <mxPoint x="-393" y="276" as="targetPoint" />
          </mxGeometry>
        </mxCell>
        <mxCell id="QRVgcffrKU4HGikY60Kn-43" value="" style="endArrow=classic;html=1;rounded=1;strokeWidth=2;strokeColor=#82B366;verticalAlign=middle;jumpStyle=arc;edgeStyle=orthogonalEdgeStyle;" parent="1" edge="1">
          <mxGeometry width="50" height="50" relative="1" as="geometry">
            <mxPoint x="-481" y="335" as="sourcePoint" />
            <mxPoint x="-391" y="335" as="targetPoint" />
          </mxGeometry>
        </mxCell>
        <mxCell id="QRVgcffrKU4HGikY60Kn-44" value="" style="endArrow=block;html=1;rounded=1;strokeWidth=2;strokeColor=#82B366;endFill=0;verticalAlign=middle;jumpStyle=arc;edgeStyle=orthogonalEdgeStyle;" parent="1" edge="1">
          <mxGeometry width="50" height="50" relative="1" as="geometry">
            <mxPoint x="-482" y="355" as="sourcePoint" />
            <mxPoint x="-392" y="355" as="targetPoint" />
          </mxGeometry>
        </mxCell>
        <mxCell id="QRVgcffrKU4HGikY60Kn-45" value="" style="endArrow=block;html=1;rounded=1;strokeWidth=2;strokeColor=#82B366;dashed=1;endFill=0;verticalAlign=middle;jumpStyle=arc;edgeStyle=orthogonalEdgeStyle;" parent="1" edge="1">
          <mxGeometry width="50" height="50" relative="1" as="geometry">
            <mxPoint x="-482" y="377" as="sourcePoint" />
            <mxPoint x="-392" y="377" as="targetPoint" />
          </mxGeometry>
        </mxCell>
        <mxCell id="QRVgcffrKU4HGikY60Kn-46" value="" style="endArrow=block;html=1;rounded=1;strokeWidth=2;strokeColor=#82B366;dashed=1;endFill=1;verticalAlign=middle;jumpStyle=arc;edgeStyle=orthogonalEdgeStyle;" parent="1" edge="1">
          <mxGeometry width="50" height="50" relative="1" as="geometry">
            <mxPoint x="-483" y="397" as="sourcePoint" />
            <mxPoint x="-393" y="397" as="targetPoint" />
          </mxGeometry>
        </mxCell>
        <mxCell id="QRVgcffrKU4HGikY60Kn-47" value="" style="endArrow=classic;html=1;rounded=1;strokeWidth=2;strokeColor=#666666;verticalAlign=middle;jumpStyle=arc;edgeStyle=orthogonalEdgeStyle;" parent="1" edge="1">
          <mxGeometry width="50" height="50" relative="1" as="geometry">
            <mxPoint x="-479" y="-123" as="sourcePoint" />
            <mxPoint x="-389" y="-123" as="targetPoint" />
          </mxGeometry>
        </mxCell>
        <mxCell id="QRVgcffrKU4HGikY60Kn-48" value="" style="endArrow=block;html=1;rounded=1;strokeWidth=2;strokeColor=#666666;endFill=0;verticalAlign=middle;jumpStyle=arc;edgeStyle=orthogonalEdgeStyle;" parent="1" edge="1">
          <mxGeometry width="50" height="50" relative="1" as="geometry">
            <mxPoint x="-480" y="-103" as="sourcePoint" />
            <mxPoint x="-390" y="-103" as="targetPoint" />
          </mxGeometry>
        </mxCell>
        <mxCell id="QRVgcffrKU4HGikY60Kn-49" value="" style="endArrow=block;html=1;rounded=1;strokeWidth=2;strokeColor=#666666;dashed=1;endFill=0;verticalAlign=middle;jumpStyle=arc;edgeStyle=orthogonalEdgeStyle;" parent="1" edge="1">
          <mxGeometry width="50" height="50" relative="1" as="geometry">
            <mxPoint x="-480" y="-81" as="sourcePoint" />
            <mxPoint x="-390" y="-81" as="targetPoint" />
          </mxGeometry>
        </mxCell>
        <mxCell id="QRVgcffrKU4HGikY60Kn-50" value="" style="endArrow=block;html=1;rounded=1;strokeWidth=2;strokeColor=#666666;dashed=1;endFill=1;verticalAlign=middle;jumpStyle=arc;edgeStyle=orthogonalEdgeStyle;" parent="1" edge="1">
          <mxGeometry width="50" height="50" relative="1" as="geometry">
            <mxPoint x="-481" y="-61" as="sourcePoint" />
            <mxPoint x="-391" y="-61" as="targetPoint" />
          </mxGeometry>
        </mxCell>
        <mxCell id="QRVgcffrKU4HGikY60Kn-51" value="&lt;b&gt;&lt;font style=&quot;font-size: 16px;&quot;&gt;&amp;lt;&amp;lt;&amp;nbsp;&lt;/font&gt;&lt;/b&gt;&lt;b&gt;&lt;font style=&quot;font-size: 16px;&quot;&gt;RecipeLocalDataSource&lt;/font&gt;&lt;/b&gt;&lt;b&gt;&lt;font style=&quot;font-size: 16px;&quot;&gt;&amp;nbsp;&amp;gt;&amp;gt;&lt;/font&gt;&lt;/b&gt;&lt;div style=&quot;text-align: left;&quot;&gt;&lt;span style=&quot;font-size: 16px; background-color: transparent; color: light-dark(rgb(0, 0, 0), rgb(255, 255, 255));&quot;&gt;• fetchCachedRecipes&lt;/span&gt;&lt;/div&gt;&lt;div style=&quot;text-align: left;&quot;&gt;&lt;span style=&quot;font-size: 16px; background-color: transparent; color: light-dark(rgb(0, 0, 0), rgb(255, 255, 255));&quot;&gt;• fetchFavoritedRecipes&lt;/span&gt;&lt;br&gt;&lt;/div&gt;&lt;div style=&quot;text-align: left;&quot;&gt;&lt;span style=&quot;font-size: 16px; background-color: transparent; color: light-dark(rgb(0, 0, 0), rgb(255, 255, 255));&quot;&gt;• saveFavoritedRecipe&lt;/span&gt;&lt;/div&gt;&lt;div style=&quot;text-align: left;&quot;&gt;&lt;span style=&quot;font-size: 16px; background-color: transparent; color: light-dark(rgb(0, 0, 0), rgb(255, 255, 255));&quot;&gt;• deleteFavoriteRecipe&lt;/span&gt;&lt;/div&gt;" style="rounded=1;whiteSpace=wrap;html=1;fillColor=#d5e8d4;strokeColor=#82b366;verticalAlign=middle;fontSize=14;dashed=1;dashPattern=8 8;" parent="1" vertex="1">
          <mxGeometry x="19" y="-150" width="278" height="124" as="geometry" />
        </mxCell>
        <mxCell id="opYvZEmjzmrLO_EnPpQF-5" style="edgeStyle=orthogonalEdgeStyle;rounded=1;orthogonalLoop=1;jettySize=auto;html=1;strokeColor=#B85450;strokeWidth=2;align=center;verticalAlign=middle;fontFamily=Helvetica;fontSize=11;fontColor=default;labelBackgroundColor=default;jumpStyle=arc;endArrow=classic;" edge="1" parent="1" source="HVMC507x6cv82XbAc2bB-1" target="HVMC507x6cv82XbAc2bB-4">
          <mxGeometry relative="1" as="geometry" />
        </mxCell>
        <mxCell id="opYvZEmjzmrLO_EnPpQF-6" style="edgeStyle=orthogonalEdgeStyle;rounded=1;orthogonalLoop=1;jettySize=auto;html=1;strokeColor=#B85450;strokeWidth=2;align=center;verticalAlign=middle;fontFamily=Helvetica;fontSize=11;fontColor=default;labelBackgroundColor=default;jumpStyle=arc;endArrow=classic;" edge="1" parent="1" source="HVMC507x6cv82XbAc2bB-1" target="QRVgcffrKU4HGikY60Kn-51">
          <mxGeometry relative="1" as="geometry" />
        </mxCell>
        <mxCell id="HVMC507x6cv82XbAc2bB-1" value="&lt;b style=&quot;color: rgb(51, 51, 51); font-size: 16px;&quot;&gt;RecipeRepository&lt;/b&gt;&lt;br&gt;&lt;div style=&quot;text-align: left;&quot;&gt;&lt;span style=&quot;font-size: 16px; background-color: transparent; color: light-dark(rgb(0, 0, 0), rgb(255, 255, 255));&quot;&gt;• getRecipes&lt;/span&gt;&lt;/div&gt;&lt;div style=&quot;text-align: left;&quot;&gt;&lt;font style=&quot;font-size: 16px;&quot;&gt;• getFavoritedRecipes&lt;/font&gt;&lt;/div&gt;&lt;div style=&quot;text-align: left;&quot;&gt;&lt;font style=&quot;font-size: 16px;&quot;&gt;• addToFavorite(Recipe)&lt;/font&gt;&lt;/div&gt;&lt;div style=&quot;text-align: left;&quot;&gt;&lt;font style=&quot;font-size: 16px;&quot;&gt;• removeFavorite(Recipe)&lt;/font&gt;&lt;/div&gt;" style="rounded=1;whiteSpace=wrap;html=1;fillColor=#f8cecc;strokeColor=#b85450;verticalAlign=middle;fontSize=14;dashed=1;dashPattern=8 8;" parent="1" vertex="1">
          <mxGeometry x="270" y="116" width="254" height="127" as="geometry" />
        </mxCell>
        <mxCell id="HVMC507x6cv82XbAc2bB-4" value="&lt;b&gt;&lt;font style=&quot;font-size: 16px;&quot;&gt;&amp;lt;&amp;lt; RecipeRemoteDataSource &amp;gt;&amp;gt;&lt;/font&gt;&lt;/b&gt;&lt;div&gt;&lt;span style=&quot;font-size: 16px; background-color: transparent; color: light-dark(rgb(0, 0, 0), rgb(255, 255, 255));&quot;&gt;• fetchRecipes&lt;/span&gt;&lt;br&gt;&lt;/div&gt;" style="rounded=1;whiteSpace=wrap;html=1;fillColor=#d5e8d4;strokeColor=#82b366;verticalAlign=middle;fontSize=14;dashed=1;dashPattern=8 8;" parent="1" vertex="1">
          <mxGeometry x="496" y="-96" width="278" height="73" as="geometry" />
        </mxCell>
        <mxCell id="opYvZEmjzmrLO_EnPpQF-4" style="edgeStyle=orthogonalEdgeStyle;rounded=1;orthogonalLoop=1;jettySize=auto;html=1;strokeColor=#D6B656;strokeWidth=2;align=center;verticalAlign=middle;fontFamily=Helvetica;fontSize=11;fontColor=default;labelBackgroundColor=default;jumpStyle=arc;endArrow=classic;" edge="1" parent="1" source="opYvZEmjzmrLO_EnPpQF-1" target="HVMC507x6cv82XbAc2bB-1">
          <mxGeometry relative="1" as="geometry" />
        </mxCell>
        <mxCell id="opYvZEmjzmrLO_EnPpQF-1" value="&lt;b style=&quot;color: rgb(51, 51, 51); font-size: 16px;&quot;&gt;RecipesViewModel&lt;/b&gt;" style="rounded=1;whiteSpace=wrap;html=1;fillColor=#fff2cc;strokeColor=#d6b656;verticalAlign=middle;fontSize=14;" vertex="1" parent="1">
          <mxGeometry x="270" y="344" width="254" height="65" as="geometry" />
        </mxCell>
      </root>
    </mxGraphModel>
  </diagram>
</mxfile>
